HIERARCHY
ROOT Hips
{
	OFFSET 0.000000 0.000000 0.000000 
	CHANNELS 6 Xposition Yposition Zposition Zrotation Yrotation Xrotation
	JOINT LeftUpLeg
	{
		OFFSET 1.363060 -1.794630 0.839290 
		CHANNELS 3 Zrotation Yrotation Xrotation
		JOINT LeftLeg
		{
			OFFSET 2.448110 -6.726130 0.000000 
			CHANNELS 3 Zrotation Yrotation Xrotation
			JOINT LeftFoot
			{
				OFFSET 2.562200 -7.039590 0.000000 
				CHANNELS 3 Zrotation Yrotation Xrotation
				JOINT LeftToeBase
				{
					OFFSET 0.157640 -0.433110 2.322550 
					CHANNELS 3 Zrotation Yrotation Xrotation
					End Site
					{
						OFFSET 0.000000 0.000000 0.000000 
					}
				}
			}
		}
	}
	JOINT RightUpLeg
	{
		OFFSET -1.305520 -1.794630 0.839290 
		CHANNELS 3 Zrotation Yrotation Xrotation
		JOINT RightLeg
		{
			OFFSET -2.542530 -6.985550 0.000000 
			CHANNELS 3 Zrotation Yrotation Xrotation
			JOINT RightFoot
			{
				OFFSET -2.568260 -7.056230 0.000000 
				CHANNELS 3 Zrotation Yrotation Xrotation
				JOINT RightToeBase
				{
					OFFSET -0.164730 -0.452590 2.363150 
					CHANNELS 3 Zrotation Yrotation Xrotation
					End Site
					{
						OFFSET 0.000000 0.000000 0.000000 
					}
				}
			}
		}
	}
	JOINT Spine
	{
		OFFSET 0.028270 2.035590 -0.193380 
		CHANNELS 3 Zrotation Yrotation Xrotation
		JOINT Spine1
		{
			OFFSET 0.056720 2.048850 -0.042750 
			CHANNELS 3 Zrotation Yrotation Xrotation
			JOINT Neck1
			{
				OFFSET -0.054170 1.746240 0.172020 
				CHANNELS 3 Zrotation Yrotation Xrotation
				JOINT Head
				{
					OFFSET 0.104070 1.761360 -0.123970 
					CHANNELS 3 Zrotation Yrotation Xrotation
					End Site
					{
						OFFSET 0.000000 0.000000 0.000000 
					}
				}
			}
			JOINT LeftArm
			{
				OFFSET 3.362410 1.200890 -0.311210 
				CHANNELS 3 Zrotation Yrotation Xrotation
				JOINT LeftForeArm
				{
					OFFSET 4.983000 -0.000000 -0.000000 
					CHANNELS 3 Zrotation Yrotation Xrotation
					JOINT LeftHand
					{
						OFFSET 3.483560 -0.000000 -0.000000 
						CHANNELS 3 Zrotation Yrotation Xrotation
						JOINT LeftHandIndex1
						{
							OFFSET 0.715260 -0.000000 -0.000000 
							CHANNELS 3 Zrotation Yrotation Xrotation
							End Site
							{
								OFFSET 0.000000 0.000000 0.000000 
							}
						}
					}
				}
			}
			JOINT RightArm
			{
				OFFSET -3.136600 1.374050 -0.404650 
				CHANNELS 3 Zrotation Yrotation Xrotation
				JOINT RightForeArm
				{
					OFFSET -5.241900 -0.000000 -0.000000 
					CHANNELS 3 Zrotation Yrotation Xrotation
					JOINT RightHand
					{
						OFFSET -3.444170 -0.000000 -0.000000 
						CHANNELS 3 Zrotation Yrotation Xrotation
						JOINT RightHandIndex1
						{
							OFFSET -0.622530 -0.000000 -0.000000 
							CHANNELS 3 Zrotation Yrotation Xrotation
							End Site
							{
								OFFSET 0.000000 0.000000 0.000000 
							}
						}
					}
				}
			}
		}
	}
}
MOTION
Frames: 13
Frame Time: 0.041667
-14.951892 17.881448 0.181561 -173.880173 -3.316155 -173.507344 -7.031676 -1.183514 -10.477583 0.638743 10.322976 26.581545 -5.429591 17.299401 -6.593554 0.020000 -0.912500 -2.508200 7.442363 5.731731 -7.433711 0.100081 -8.000918 18.581789 3.387248 -15.097417 3.998228 -0.502200 4.542800 -12.609000 -0.488412 2.633234 -3.154277 1.330309 1.849603 1.996948 5.148954 10.276041 -14.313820 -1.126100 3.565000 -4.722300 -75.370096 -6.526380 17.990106 1.958117 -9.523938 -0.833334 -2.119461 -2.566816 14.389924 -7.125000 0.000000 0.000000 76.368545 1.079520 15.966599 -7.075178 12.289164 -1.873572 0.140581 -3.263302 12.112479 7.125000 0.000000 0.000000 
-14.950453 17.883330 0.186986 -173.884848 -3.261407 -173.514704 -7.045455 -1.235389 -10.495146 0.653600 10.351528 26.658518 -5.480651 17.435976 -6.588334 0.029800 -1.114000 -3.062600 7.427116 5.764524 -7.398264 0.115341 -7.955428 18.445822 3.391809 -15.146203 4.124474 -0.602000 4.966700 -13.813500 -0.515518 2.644720 -3.133074 1.209962 1.854100 2.056157 4.813920 10.240887 -14.072536 -1.331900 3.552800 -4.536900 -75.286684 -6.672475 17.665315 1.892159 -9.406321 -0.825669 -2.135596 -2.556806 14.761529 -7.125000 0.000000 0.000000 76.472452 1.270637 15.874930 -6.996262 12.156141 -1.846268 0.195976 -3.271525 12.273268 7.125000 0.000000 0.000000 
-14.953774 17.882112 0.192078 -173.641483 -3.105931 -173.514939 -6.822172 -1.294458 -10.417105 0.636652 10.305960 26.516804 -5.560354 17.630259 -6.462200 0.026200 -1.044900 -2.872500 7.642268 5.827004 -7.522627 0.089600 -8.033810 18.688505 3.346205 -14.969847 4.012461 -0.598600 4.953100 -13.774800 -0.506017 2.721235 -3.125106 1.051255 1.893442 2.098926 4.522807 10.256262 -13.880020 -1.494600 3.571300 -4.406400 -75.269704 -6.725169 17.628918 1.890601 -9.393945 -0.826836 -2.137610 -2.561168 14.847038 -7.125000 0.000000 0.000000 76.476166 1.408732 15.348735 -6.788850 11.904113 -1.823608 0.167734 -3.383381 12.577201 7.125000 0.000000 0.000000 
-14.963184 17.885987 0.200160 -173.882884 -2.940852 -173.269945 -7.096735 -1.412384 -10.574995 0.616219 10.281654 26.460143 -5.585775 17.692875 -6.558639 0.009300 -0.621600 -1.708100 7.288884 5.643278 -7.905561 0.072699 -8.041217 18.757619 3.299648 -14.797863 4.114977 -0.671300 5.239600 -14.593100 -0.564318 2.759760 -3.157758 0.942819 1.908053 2.095267 4.393780 10.241544 -13.778161 -1.573200 3.567800 -4.336700 -75.254855 -6.713482 17.455756 1.898309 -9.394730 -0.824285 -2.124081 -2.553382 14.999401 -7.125000 0.000000 0.000000 76.596827 1.018420 15.742587 -7.116387 12.361925 -1.920582 0.172525 -3.374298 11.785463 7.125000 0.000000 0.000000 
-14.985437 17.891744 0.215991 -175.411453 -2.735301 -172.589697 -8.740841 -1.653543 -11.060215 0.550938 10.221885 26.311602 -5.580447 17.727428 -6.788793 0.000900 -0.189700 -0.521300 5.469905 4.844386 -8.974629 0.008740 -8.055700 18.947932 3.101081 -14.078362 4.475001 -0.655300 5.177900 -14.416700 -0.794483 2.735559 -3.234887 1.083364 1.869875 2.120321 4.152794 10.198518 -13.581641 -1.710700 3.558500 -4.203600 -75.248095 -6.727312 17.158451 1.883705 -9.366170 -0.812436 -2.086545 -2.531704 15.184481 -7.125000 0.000000 0.000000 76.553236 0.905535 16.713279 -7.296229 12.586570 -1.944018 0.239556 -3.295607 10.694336 7.125000 0.000000 0.000000 
-14.965399 17.890304 0.211009 -174.565207 -2.733153 -173.119759 -7.831053 -1.539384 -10.527670 0.535261 10.172854 26.126943 -5.599748 17.748150 -6.649630 0.000800 -0.187000 -0.513800 6.516331 5.343039 -8.408387 -0.002230 -8.193571 19.258624 3.193988 -14.351808 3.985095 -0.622000 5.047000 -14.042800 -0.648593 2.721996 -3.164064 1.107820 1.875307 2.069264 4.353431 10.325179 -13.741183 -1.605300 3.609800 -4.314500 -75.273099 -6.735860 17.076561 1.877738 -9.351614 -0.807010 -2.072373 -2.519451 15.204383 -7.125000 0.000000 0.000000 76.454055 1.030561 16.433435 -7.148337 12.404487 -1.913612 0.167544 -3.322739 11.169104 7.125000 0.000000 0.000000 
-14.973148 17.886983 0.217873 -175.061503 -2.611881 -172.985181 -8.388463 -1.610855 -10.527648 0.491800 10.111720 25.929595 -5.669990 17.954517 -6.611550 0.002700 -0.336900 -0.925700 5.924136 5.065976 -8.778368 -0.048773 -8.267576 19.532728 3.040730 -13.811598 4.029707 -0.577300 4.865500 -13.525400 -0.714588 2.728833 -3.174618 1.180692 1.869080 2.072017 4.553825 10.361138 -13.800314 -1.480600 3.632600 -4.368900 -75.337303 -6.672081 17.579698 1.925571 -9.442871 -0.817513 -2.079730 -2.538510 14.721876 -7.125000 0.000000 0.000000 76.302871 1.089447 16.113169 -6.992364 12.236240 -1.901695 0.108319 -3.411046 11.550374 7.125000 0.000000 0.000000 
-14.978905 17.883219 0.226176 -175.410286 -2.518187 -172.815172 -8.775780 -1.853463 -10.578648 0.478017 10.112153 25.927286 -5.761179 18.202000 -6.780570 0.001600 -0.260600 -0.715900 5.495912 4.872636 -9.044120 -0.056333 -8.248371 19.514709 2.980497 -13.608374 4.149822 -0.608500 4.992900 -13.888400 -0.758561 2.702595 -3.181141 1.220926 1.850928 2.114142 4.559319 10.493019 -14.017718 -1.446800 3.690500 -4.518000 -75.394976 -6.625204 18.214845 1.981578 -9.550422 -0.832460 -2.095294 -2.566202 14.255772 -7.125000 0.000000 0.000000 76.211409 1.071446 16.459464 -7.000830 12.269027 -1.917707 0.134072 -3.455584 11.107381 7.125000 0.000000 0.000000 
-14.977023 17.882333 0.230494 -175.301891 -2.444223 -172.911156 -8.684477 -2.044531 -10.387015 0.467815 10.104247 25.877847 -5.872976 18.492388 -6.818228 0.001100 -0.211800 -0.582000 5.622300 4.910348 -9.000161 -0.065652 -8.281844 19.592408 2.996317 -13.684997 4.193339 -0.635200 5.099100 -14.191500 -0.747097 2.679048 -3.138910 1.258404 1.838236 2.205605 6.068264 10.908603 -15.429892 -0.557600 3.816000 -4.825400 -75.397064 -6.725015 18.252543 1.965148 -9.519829 -0.834418 -2.124562 -2.567094 14.340184 -7.125000 0.000000 0.000000 76.238886 1.092683 16.373523 -7.042817 12.346102 -1.945536 0.092770 -3.485658 11.140303 7.125000 0.000000 0.000000 
-14.975141 17.883883 0.235697 -175.260437 -2.365298 -172.956928 -8.651689 -2.129965 -10.356759 0.483596 10.137580 25.966235 -5.922907 18.626464 -6.848309 0.001000 -0.207100 -0.569100 5.673208 4.920251 -8.926879 -0.055871 -8.247417 19.482769 2.971735 -13.690264 4.503823 -0.758800 5.563100 -15.522000 -0.749720 2.684635 -3.118077 1.195537 1.840811 2.227583 6.221273 11.042234 -15.439413 -0.513800 3.866100 -4.811000 -75.356089 -6.768367 18.572095 1.983775 -9.554056 -0.839507 -2.127139 -2.577930 14.076140 -7.125000 0.000000 0.000000 76.268037 1.047174 16.018969 -7.112539 12.452061 -1.975234 0.019886 -3.483550 11.324009 7.125000 0.000000 0.000000 
-14.967502 17.882998 0.244000 -175.093115 -2.437671 -172.915714 -8.428705 -2.052123 -10.527814 0.512019 10.170090 26.080588 -5.900022 18.554846 -6.775603 0.003500 -0.381700 -1.048700 5.883408 4.937531 -8.905207 -0.036226 -8.195244 19.323545 3.010026 -13.871963 4.682563 -0.727900 5.451200 -15.200200 -0.722928 2.624852 -3.120288 1.154745 1.815764 2.213317 5.900173 11.022066 -15.258800 -0.661300 3.875400 -4.711700 -75.348861 -6.766307 18.977772 2.028392 -9.628163 -0.843874 -2.105695 -2.587345 13.758714 -7.125000 0.000000 0.000000 76.279333 1.068892 15.859347 -7.116384 12.443762 -1.968161 0.038291 -3.463949 11.478502 7.125000 0.000000 0.000000 
-14.951560 17.881780 0.249536 -174.567124 -2.523578 -173.091192 -7.814021 -1.761586 -10.575119 0.548928 10.202930 26.193894 -5.817408 18.313942 -6.663480 0.010200 -0.652600 -1.793400 6.535646 5.281617 -8.577178 -0.009026 -8.174055 19.211852 3.139746 -14.318143 4.565376 -0.681200 5.277300 -14.701200 -0.642402 2.565863 -3.099982 1.114379 1.796748 2.169664 6.057649 11.117841 -15.383827 -0.597000 3.907000 -4.784300 -75.334428 -6.823186 18.511600 1.998827 -9.556376 -0.827298 -2.056990 -2.560461 14.180860 -7.125000 0.000000 0.000000 76.365354 1.120898 15.579589 -7.079296 12.369302 -1.945480 0.056276 -3.439662 11.891897 7.125000 0.000000 0.000000 
-14.940046 17.877351 0.251418 -174.780612 -2.177197 -173.381826 -8.083681 -1.786733 -10.284157 0.561256 10.274011 26.354981 -5.895309 18.545270 -6.997945 0.010900 -0.672800 -1.848900 6.367148 5.616601 -8.107440 0.015451 -8.126940 19.024829 3.169485 -14.467532 4.686644 -0.656800 5.183600 -14.432900 -0.679598 2.692990 -3.052624 1.199748 1.857746 2.109671 5.792621 11.062975 -15.317605 -0.726600 3.886500 -4.749500 -75.292111 -6.830672 18.114698 1.983913 -9.522550 -0.816707 -2.000616 -2.551042 14.571528 -7.125000 0.000000 0.000000 76.469583 1.077931 15.476321 -7.129171 12.410762 -1.944871 0.041022 -3.393500 12.047647 7.125000 0.000000 0.000000 
